<svg version="1.1" id="Layer_1" xmlns="http://www.w3.org/2000/svg" x="0" y="0" viewBox="0 0 1100 800" xml:space="preserve">
    <title>
        Festival of Maintenance
    </title>
    <desc>
        Some rights reserved. festivalofmaintenance.org.uk 
    </desc>
	<style>.st0{fill:#a51916}.st1{fill:#a8a7a7}</style><switch><g><g id="fom"><path class="st0" d="M930.02 192.07c-21 .01-42 .02-63-.03-3.47-.01-5.55.61-6.7 4.76-3.29 11.82-7.42 23.41-11.13 35.12-3.45 10.92-6.78 21.89-10.17 32.84-3.72 12.04-7.44 24.09-11.17 36.12-3.64 11.74-7.31 23.46-10.94 35.2-3.53 11.41-7.01 22.84-10.56 34.25-3.79 12.2-7.65 24.39-11.44 36.59-3.44 11.09-6.77 22.21-10.25 33.29-3.73 11.88-7.64 23.69-11.33 35.58-3.55 11.41-6.83 22.91-10.39 34.31-3.66 11.72-7.65 23.33-11.28 35.06-4.57 14.74-8.85 29.57-13.47 44.3-.44 1.41-2.4 2.35-3.66 3.51-.82-1.33-1.91-2.56-2.4-4-1.53-4.56-2.76-9.23-4.25-13.81-5.75-17.69-11.64-35.33-17.33-53.04-5.75-17.86-11.24-35.8-17-53.66-6.73-20.86-13.72-41.64-20.42-62.51-7.77-24.19-15.26-48.47-23.03-72.66-6.76-21.02-13.85-41.94-20.61-62.96-7.77-24.18-15.37-48.42-22.97-72.66-1.27-4.05-3.46-5.74-7.98-5.7-26.33.22-52.66.11-78.99.11H363.06c-6.76 0-7.03.28-7.03 7.04-.01 12 .19 24-.09 36-.11 4.81 1.51 6.44 6.31 6.38 10.83-.15 21.71-.45 32.47.47 14.23 1.22 24.26 6.06 25.59 24.19.71 9.63 1.35 19.29 1.36 28.93.09 110.99.1 221.98-.01 332.97-.01 9.64-.68 19.31-1.5 28.92-1.16 13.68-9.77 21.94-23.44 22.36-13.82.42-27.66.43-41.49.39-4.39-.01-6.28 1.35-6.18 6.06.25 12.49.28 25-.01 37.49-.11 4.81 1.94 6.01 6.22 6.01 72.99-.05 145.99-.05 218.98.02 4.29 0 5.92-1.49 5.85-5.85-.2-12.5-.22-25 0-37.49.09-4.82-1.69-6.33-6.45-6.28-13.83.13-27.67.07-41.48-.39-12.43-.42-20.63-7.74-22.32-20.07-1.21-8.88-2.02-17.89-2.03-26.84-.21-111.99-.24-223.98-.29-335.97 0-1.28.38-2.57.74-4.82 1.26 1.42 1.87 1.82 2.06 2.36 3.26 9.02 6.6 18.02 9.66 27.12 3.7 11.01 7.15 22.11 10.74 33.16 3.74 11.51 7.52 23 11.3 34.5 3.62 11.04 7.24 22.08 10.88 33.11 3.58 10.87 7.22 21.72 10.78 32.6 3.82 11.67 7.57 23.36 11.37 35.03 3.49 10.73 7.04 21.44 10.52 32.17 3.74 11.51 7.4 23.05 11.14 34.56 3.59 11.05 7.26 22.07 10.85 33.12 3.58 11.04 7.06 22.11 10.66 33.14 3.66 11.2 7.45 22.36 11.1 33.56 3.65 11.19 7.18 22.42 10.81 33.61 3.69 11.36 7.65 22.64 11.03 34.1 1.15 3.92 2.95 5.55 6.91 5.54 36.83-.04 73.66-.04 110.49.04 3.4.01 5.33-1.5 6.3-4.53 3.5-10.91 6.93-21.84 10.45-32.75 3.47-10.74 6.99-21.46 10.52-32.19 3.68-11.2 7.43-22.37 11.07-33.58 4.62-14.21 9.1-28.47 13.74-42.67 4.69-14.36 9.58-28.65 14.26-43.02 4.68-14.36 9.13-28.8 13.81-43.16 4.68-14.36 9.6-28.65 14.28-43.01 4.63-14.21 9-28.5 13.64-42.7 5.72-17.52 11.72-34.94 17.4-52.47 6.65-20.53 13.06-41.14 19.67-61.68.41-1.26 1.72-2.23 2.61-3.34l1.44.48c.13 2.74.38 5.47.38 8.21.02 109.99.04 219.98-.03 329.98 0 7.82-.47 15.65-1.08 23.44-1.14 14.3-9.58 22.58-23.84 23.04-13.32.43-26.66.32-39.99.42-7.28.06-7.36.09-7.37 7.13-.02 11.33 0 22.66 0 34 0 8.33 0 8.34 8.18 8.34 63.5 0 126.99 0 190.49-.01 2.16 0 4.32-.15 6.48-.24v-537c-40.3.01-80.62.04-120.95.06zm55.91 506.18l-27.27-27.27 27.27-27.27 27.27 27.27-27.27 27.27zm0-162l-27.27-27.27 27.27-27.27 27.27 27.27-27.27 27.27z"/><path class="st0" d="M356.26 158.32c.22 5.97 1.03 6.92 7.04 6.93 26.33.02 52.66.02 78.99.01 6.81 0 7.47-.64 7.47-7.4.01-41.83.01-83.65-.02-125.48 0-1.94-.25-3.89-.42-6.24h-7.89c-127.98 0-255.96 0-383.94-.01-2.16 0-4.33-.08-6.49-.12v537c.82.12 1.64.34 2.46.34 68.16.02 136.31 0 204.47.08 4 0 5.12-1.57 5.06-5.38-.19-12.33-.07-24.66-.07-36.99 0-7.09-.01-7.08-7.24-7.11-15.16-.05-30.33.09-45.49-.24-10.67-.23-19.52-4.52-22.7-15.31-2.22-7.53-3.24-15.61-3.49-23.48-.52-15.98-.16-31.99-.16-47.99 0-35.83.02-71.66-.05-107.48-.01-3.73.31-6.7 5.14-6.6 10.49.21 21.03-.19 31.48.56 8.81.63 17.65 6.25 18.73 16.34 1.28 12.04 2.02 24.15 2.49 36.25.18 4.62 1.29 6.36 6.26 6.31 24.16-.24 48.33-.11 72.49-.11 7.89 0 7.9 0 7.9-8.06 0-55.33-.06-110.65.11-165.98.01-4.86-1.45-6.32-6.21-6.28-25 .18-49.99.19-74.99-.01-4.59-.04-5.38 1.69-5.57 5.84-.54 11.59-1.27 23.21-2.71 34.72-.82 6.54-5.18 11.81-11.81 12.62-12.16 1.5-24.46 1.79-36.7 2.65-4.72.33-6.6-1.79-6.59-6.46.06-49.16.07-98.32 0-147.48-.01-4.13 1.78-5.58 5.74-5.57 45.49.07 90.99-.1 136.48.29 5.35.05 11.11 2.21 15.9 4.82 8.03 4.38 11.67 12.45 12.37 21.13 1.17 14.58 1.42 29.25 1.96 43.89zm-235 370.66H81.93v-38h39.33v38z"/><path transform="rotate(45.001 102.607 670.747)" class="st0" d="M83.32 651.46h38.57v38.57H83.32z"/><g><path class="st1" d="M261.95 775.84c-2.67 0-5.35.02-8.02.01-2.92-.01-5.83.01-8.69-.68-1.86-.44-9.15-2.26-10.93-2.9-2.91-1.05-5.43-2.93-7.86-4.8-2.39-1.83-3.9-4.19-3.49-7.29.39-2.97 1.81-6.47 4.54-8 4.33-2.42 9.98-.22 13.98 1.83.74.25 1.34.73 1.88 1.27 3.33 4.14 6.68 8.49 11.31 11.04 5.01 2.76 10.57 2.1 15.81-.24 7.97-3.55 12.73-12.07 14.25-20.32 2.37-12.87 4.92-25.7 7.06-38.62 2.57-15.44 5.37-30.84 8.07-46.26 1.65-9.37 3.58-18.71 4.81-28.17.36-2.78-.64-3.68-3.13-3.71-3.5-.04-7 .05-10.49-.04-2.45-.07-4.94-.47-4.91-3.65.03-2.94 1.97-4.54 4.79-4.74 3.65-.26 7.33-.2 10.99-.05 3.43.14 4.56-1.02 5.36-4.66 1.39-6.32 2.31-12.83 4.78-18.9 5.3-13.34 15.65-21.71 28.48-26.59 11.6-4.41 23.65-3.78 35.09 1.62 4.99 2.36 7.76 8.3 5.98 12.22-2.1 4.63-9.23 7.6-14.12 5.73-2.94-1.12-5.59-2.76-7.22-5.63-3.52-7.38-9.73-9.74-16.73-5.97-6.8 3.66-9.44 9.39-11.64 17.25-1.87 6.68-3.16 12.85-3.18 19.61-.01 4.87.39 5.8 5.39 6.16 3.15.23 6.32.07 9.48.12 2.19.03 4.87-.06 4.96 2.84.1 3.07-2.31 4.11-5.12 4.13-3.99.04-7.99.16-11.97-.03-3.53-.17-5.33.84-6.09 4.71-2.16 10.86-20.92 112.38-28.07 122.97-5.87 8.69-14.48 15.29-24.57 17.95-3.65.99-7.71 1.81-10.78 1.79z"/><path d="M254.97 766.05c5.15 3.59 10.66 1.01 16.03.92-11.24 7.61-22.11-1.26-28.02-10.94 4.54 2.69 6.86 8.04 11.99 10.02z" fill="#bdbdbd"/><path class="st1" d="M265 662.12c-.39-14.99-6.29-27.57-18.89-35.52-16.74-10.56-35.4-10.02-52.75-2.59-26.13 11.19-38.55 32.81-40.16 52.75-.86 28.98 10.21 43.04 24.49 48.83 15.49 6.28 31.47 5.57 46.71-.56 25.99-10.46 41.33-34.9 40.6-62.91zm-35.21 42.82c-8.26 12.57-21.11 16.78-35.8 14.84-10.22-1.35-17.88-11.16-18.85-23.52-.18-2.32-.03-4.66-.03-6.99.9-19 4.77-36.95 19.04-50.94 9.92-9.73 25.05-12.32 37.37-6.18 5.5 2.75 9.15 7.97 10.04 13.67 3.29 21.02-.01 41.21-11.77 59.12z"/></g><path id="weird_rectangle" class="st1" d="M475 26v140h576V26H475zm532.26 99.23l14.24-14.24 20.51 20.51-20.51 20.51-20.51-20.51.21-.21-240.32-33.71-235.17 35.22-19.21 19.21-20.51-20.51 20.51-20.51 15.45 15.45 215.09-32.21L521 63.93V71h-29V42h29v15.03l239.85 33.64 242.26-36.28L1021.5 36l20.51 20.51-20.51 20.51-16.05-16.05-220.76 33.04 222.57 31.22z"/></g></g></switch></svg>