<svg xmlns="http://www.w3.org/2000/svg" width="310.155" height="87.796"><path d="M131.858 63.834h-3.821V61.93h9.927v1.904h-3.821v12.758h3.821v1.93h-9.927v-1.93h3.821V63.834zM141.893 65.776h1.967l.089 2.057c.373-.44.732-.807 1.079-1.099s.688-.526 1.022-.704.675-.303 1.022-.375a5.372 5.372 0 0 1 1.079-.107c1.312 0 2.304.387 2.977 1.161s1.009 1.94 1.009 3.498v8.314h-2.208v-8.137c0-.999-.187-1.737-.559-2.216-.373-.478-.927-.717-1.663-.717-.271 0-.535.04-.793.12a2.93 2.93 0 0 0-.806.419 6.672 6.672 0 0 0-.908.807c-.326.338-.692.762-1.098 1.27v8.454h-2.208V65.776zM165.993 75.043c0 .449-.076.851-.229 1.206s-.359.671-.622.946a3.85 3.85 0 0 1-.914.704c-.347.194-.717.355-1.11.482s-.798.22-1.213.279c-.414.06-.82.089-1.218.089-.863 0-1.657-.038-2.381-.114s-1.433-.199-2.126-.368v-2.031c.744.212 1.485.373 2.222.482.736.11 1.468.165 2.196.165 1.058 0 1.84-.144 2.348-.432.508-.287.762-.698.762-1.231 0-.229-.04-.434-.12-.615-.081-.183-.227-.355-.438-.521-.211-.165-.539-.337-.983-.515s-1.052-.381-1.821-.609c-.576-.169-1.107-.361-1.594-.577s-.907-.472-1.263-.769a3.306 3.306 0 0 1-.838-1.04c-.203-.398-.305-.868-.305-1.409 0-.355.082-.745.247-1.168.165-.424.446-.817.845-1.181.397-.364.935-.667 1.612-.908s1.523-.361 2.539-.361c.499 0 1.053.027 1.662.082.609.056 1.244.15 1.904.286v1.968a18.136 18.136 0 0 0-1.974-.375 12.93 12.93 0 0 0-1.618-.12c-.551 0-1.014.042-1.391.127-.377.084-.682.201-.914.349a1.37 1.37 0 0 0-.501.521c-.102.199-.152.413-.152.642s.044.436.133.622c.089.186.254.366.495.539.241.174.578.347 1.01.521s.994.361 1.688.564c.754.221 1.389.451 1.904.692.517.241.936.51 1.257.806.322.297.553.631.692 1.003.139.372.209.795.209 1.269zM180.178 78.344c-.499.127-1.016.218-1.549.272-.533.056-1.074.083-1.625.083-1.599 0-2.792-.361-3.579-1.085s-1.181-1.835-1.181-3.333V67.63h-3.567v-1.854h3.567v-3.504l2.209-.571v4.075h5.725v1.854h-5.725v6.474c0 .914.243 1.598.729 2.051.486.452 1.204.679 2.151.679.406 0 .851-.031 1.333-.095s.986-.163 1.511-.299v1.904zM188.259 67.604h-3.771v-1.828h6.004V76.68h3.796v1.841H184.07V76.68h4.189v-9.076zm.775-7.172c.245 0 .474.045.686.134.211.089.396.214.552.374.156.161.279.345.368.553.089.207.133.434.133.679 0 .237-.044.461-.133.673s-.212.397-.368.559-.341.285-.552.374c-.212.089-.44.134-.686.134-.246 0-.475-.045-.686-.134-.212-.089-.396-.213-.553-.374a1.776 1.776 0 0 1-.501-1.232c0-.245.044-.472.133-.679.089-.208.212-.392.368-.553.156-.16.341-.285.553-.374.211-.089.44-.134.686-.134zM208.195 78.344c-.499.127-1.016.218-1.549.272-.533.056-1.074.083-1.625.083-1.599 0-2.792-.361-3.579-1.085s-1.181-1.835-1.181-3.333V67.63h-3.567v-1.854h3.567v-3.504l2.209-.571v4.075h5.725v1.854h-5.725v6.474c0 .914.243 1.598.729 2.051.486.452 1.204.679 2.151.679.406 0 .851-.031 1.333-.095s.986-.163 1.511-.299v1.904zM222.177 78.521h-1.98l-.076-2.057c-.381.44-.742.807-1.085 1.099s-.684.526-1.022.704a3.887 3.887 0 0 1-1.021.374 5.267 5.267 0 0 1-1.085.108c-1.313 0-2.303-.385-2.971-1.155-.669-.77-1.003-1.934-1.003-3.491v-8.327h2.209v8.149c0 1.955.736 2.933 2.209 2.933.271 0 .535-.04.793-.12.258-.081.529-.221.813-.419.283-.199.588-.468.914-.807.325-.338.691-.766 1.098-1.282v-8.454h2.209v12.745zM236.21 78.344c-.499.127-1.016.218-1.549.272-.533.056-1.074.083-1.625.083-1.599 0-2.792-.361-3.579-1.085s-1.181-1.835-1.181-3.333V67.63h-3.567v-1.854h3.567v-3.504l2.209-.571v4.075h5.725v1.854h-5.725v6.474c0 .914.243 1.598.729 2.051.486.452 1.204.679 2.151.679.406 0 .851-.031 1.333-.095s.986-.163 1.511-.299v1.904zM250.713 71.476c0 .313-.004.576-.013.787-.009.212-.021.411-.038.597h-8.949c0 1.304.363 2.305 1.092 3.003.728.698 1.777 1.047 3.147 1.047.373 0 .745-.015 1.117-.044.373-.03.732-.07 1.079-.121.348-.051.68-.107.997-.171s.611-.134.882-.21v1.815a15.35 15.35 0 0 1-2.037.412c-.758.106-1.543.159-2.354.159-1.092 0-2.031-.148-2.818-.444s-1.433-.726-1.937-1.288c-.503-.563-.876-1.253-1.117-2.069s-.361-1.741-.361-2.774c0-.896.129-1.745.387-2.545.259-.8.635-1.502 1.13-2.107a5.441 5.441 0 0 1 1.822-1.44c.719-.355 1.536-.533 2.45-.533.888 0 1.675.14 2.36.419s1.264.675 1.733 1.187c.47.513.825 1.135 1.066 1.866.242.73.362 1.548.362 2.454zm-2.297-.318a4.813 4.813 0 0 0-.165-1.555 3.266 3.266 0 0 0-.628-1.212 2.919 2.919 0 0 0-1.061-.794c-.423-.19-.913-.285-1.472-.285-.482 0-.923.093-1.32.279a2.992 2.992 0 0 0-1.028.787 4.027 4.027 0 0 0-.698 1.219 5.595 5.595 0 0 0-.33 1.561h6.702z"/><g fill="#DB2830"><path d="M138.51 16.801c0 .787-.161 1.477-.482 2.069a4.2 4.2 0 0 1-1.345 1.479c-.576.394-1.268.688-2.076.882-.808.195-1.699.292-2.672.292-.44 0-.878-.017-1.314-.051a26.119 26.119 0 0 1-1.256-.127c-.402-.051-.781-.11-1.136-.178s-.677-.14-.965-.216v-2.184c.635.237 1.348.423 2.139.559.791.136 1.69.203 2.697.203.728 0 1.348-.057 1.86-.171.512-.114.931-.283 1.257-.508a2.01 2.01 0 0 0 .711-.819 2.61 2.61 0 0 0 .222-1.104c0-.449-.125-.832-.375-1.149-.25-.317-.578-.601-.984-.851s-.87-.478-1.39-.686-1.052-.421-1.593-.641-1.073-.459-1.593-.717a6.623 6.623 0 0 1-1.39-.914 4.234 4.234 0 0 1-.984-1.238c-.25-.474-.375-1.037-.375-1.688 0-.567.118-1.125.355-1.676a4.014 4.014 0 0 1 1.104-1.466c.499-.427 1.14-.772 1.923-1.035.783-.262 1.716-.394 2.799-.394.279 0 .582.013.908.038.326.025.656.062.99.108.334.047.664.1.99.159.326.06.628.123.908.19v2.031a15.394 15.394 0 0 0-1.955-.425 12.853 12.853 0 0 0-1.892-.146c-1.295 0-2.247.216-2.856.647s-.914 1.011-.914 1.739c0 .448.125.833.375 1.155.25.322.578.609.984.863s.87.485 1.39.692c.521.208 1.052.421 1.593.641.542.22 1.073.461 1.593.724.521.263.984.573 1.39.933s.734.781.983 1.263.376 1.057.376 1.717zM153.846 14.821c0 .99-.141 1.898-.42 2.723s-.682 1.532-1.205 2.12a5.42 5.42 0 0 1-1.917 1.371c-.753.326-1.608.489-2.564.489-.914 0-1.733-.142-2.457-.425a4.852 4.852 0 0 1-1.84-1.25c-.504-.55-.889-1.231-1.155-2.044-.267-.812-.4-1.747-.4-2.805 0-.99.14-1.894.419-2.71a6.07 6.07 0 0 1 1.206-2.107 5.41 5.41 0 0 1 1.917-1.371c.753-.326 1.608-.489 2.564-.489.914 0 1.733.142 2.457.425s1.337.698 1.841 1.244c.502.546.889 1.225 1.154 2.038.267.81.4 1.741.4 2.791zm-2.26.101c0-.787-.087-1.475-.26-2.063-.174-.588-.421-1.079-.743-1.473a3.075 3.075 0 0 0-1.174-.889 3.855 3.855 0 0 0-1.542-.298c-.66 0-1.225.129-1.695.387s-.855.603-1.155 1.035-.52.933-.66 1.504-.209 1.17-.209 1.796c0 .787.086 1.477.26 2.069.173.592.421 1.085.742 1.479.322.394.711.69 1.168.889.457.199.973.298 1.549.298.66 0 1.225-.129 1.695-.387s.854-.603 1.155-1.035c.3-.432.521-.933.66-1.504s.209-1.173.209-1.808zM168.927 5.414c-1.159-.245-2.158-.368-2.996-.368-1.988 0-2.982 1.041-2.982 3.123v2.234h5.585v1.841h-5.585v9.051h-2.247v-9.051h-4.101v-1.841h4.101V8.296c0-3.394 1.769-5.091 5.306-5.091.881 0 1.854.102 2.92.305v1.904zM182.752 21.117c-.499.127-1.016.218-1.549.273s-1.074.083-1.625.083c-1.599 0-2.792-.362-3.579-1.085s-1.181-1.834-1.181-3.332v-6.652h-3.567V8.55h3.567V5.046l2.209-.571V8.55h5.725v1.853h-5.725v6.475c0 .914.243 1.597.729 2.05.486.453 1.204.679 2.151.679.406 0 .851-.032 1.333-.095s.986-.163 1.511-.298v1.903zM199.155 8.55l-1.854 12.745h-2.679l-1.84-5.332-.368-1.295-.419 1.371-1.765 5.255h-2.603L185.788 8.55h2.158l1.066 8.658.229 1.929.546-1.688 1.854-5.725h1.586l1.993 5.649.571 1.688.19-1.79.99-8.721h2.184zM210.402 21.295l-.051-1.714c-.693.686-1.398 1.181-2.113 1.485s-1.466.457-2.253.457c-.729 0-1.351-.093-1.866-.279-.517-.186-.941-.442-1.276-.768a2.98 2.98 0 0 1-.736-1.149 4.264 4.264 0 0 1-.234-1.435c0-1.277.476-2.278 1.428-3.002s2.359-1.085 4.222-1.085h2.64v-1.117c0-.753-.241-1.356-.724-1.809-.482-.453-1.219-.679-2.208-.679a9.49 9.49 0 0 0-2.127.241c-.698.161-1.42.39-2.164.686V9.134a14.2 14.2 0 0 1 3.212-.742c.414-.046.833-.07 1.257-.07.77 0 1.464.084 2.081.254.618.169 1.141.427 1.568.774.427.347.755.783.983 1.307.229.525.343 1.143.343 1.854v8.785h-1.982zm-.241-5.801h-2.805c-.551 0-1.024.055-1.422.165-.398.11-.724.267-.978.47s-.442.446-.565.73a2.4 2.4 0 0 0-.184.958c0 .246.038.48.114.705.076.225.198.423.368.597.169.174.389.311.66.413.271.102.601.152.99.152.508 0 1.089-.154 1.745-.463.655-.309 1.348-.797 2.075-1.466v-2.261zM217.601 8.55h2.019l.063 2.348c.753-.905 1.495-1.561 2.228-1.967s1.471-.609 2.215-.609c1.32 0 2.321.427 3.003 1.282.681.855.996 2.125.945 3.809h-2.234c.025-1.117-.138-1.927-.488-2.431-.352-.503-.865-.755-1.543-.755a2.68 2.68 0 0 0-.895.159 3.618 3.618 0 0 0-.927.508 8.386 8.386 0 0 0-1.009.895c-.355.364-.736.804-1.143 1.32v8.188h-2.234V8.55zM242.711 14.25c0 .313-.004.576-.013.787s-.021.411-.038.597h-8.949c0 1.303.363 2.304 1.092 3.002.728.698 1.777 1.047 3.147 1.047.373 0 .745-.015 1.117-.044.373-.029.732-.07 1.079-.121.348-.051.68-.108.997-.171s.611-.133.882-.209v1.815c-.601.169-1.28.307-2.037.413-.758.106-1.543.159-2.354.159-1.092 0-2.031-.148-2.818-.444-.787-.296-1.433-.726-1.937-1.289-.503-.563-.876-1.252-1.117-2.069-.241-.816-.361-1.741-.361-2.773 0-.897.129-1.746.387-2.545.259-.8.635-1.502 1.13-2.107a5.429 5.429 0 0 1 1.822-1.44c.719-.355 1.536-.533 2.45-.533.888 0 1.675.14 2.36.419s1.264.675 1.733 1.187c.47.512.825 1.134 1.066 1.866.242.728.362 1.547.362 2.453zm-2.297-.318a4.81 4.81 0 0 0-.165-1.555 3.266 3.266 0 0 0-.628-1.212 2.928 2.928 0 0 0-1.061-.793c-.423-.19-.913-.286-1.472-.286-.482 0-.923.093-1.32.279a3.017 3.017 0 0 0-1.028.787 4.051 4.051 0 0 0-.698 1.219 5.603 5.603 0 0 0-.33 1.562h6.702z"/></g><g><path d="M138.51 45.293c0 .787-.161 1.478-.482 2.069a4.191 4.191 0 0 1-1.345 1.479c-.576.394-1.268.688-2.076.882s-1.699.292-2.672.292c-.44 0-.878-.017-1.314-.051a26.119 26.119 0 0 1-1.256-.127c-.402-.051-.781-.11-1.136-.178s-.677-.14-.965-.216v-2.184a11.8 11.8 0 0 0 2.139.559c.791.136 1.69.203 2.697.203.728 0 1.348-.057 1.86-.171.512-.114.931-.284 1.257-.508.326-.225.563-.497.711-.819a2.61 2.61 0 0 0 .222-1.104c0-.448-.125-.831-.375-1.148-.25-.317-.578-.602-.984-.851s-.87-.478-1.39-.686-1.052-.421-1.593-.642a22.82 22.82 0 0 1-1.593-.717 6.623 6.623 0 0 1-1.39-.914 4.234 4.234 0 0 1-.984-1.238c-.25-.474-.375-1.037-.375-1.688 0-.567.118-1.125.355-1.676a4.014 4.014 0 0 1 1.104-1.466c.499-.427 1.14-.772 1.923-1.035.783-.262 1.716-.394 2.799-.394.279 0 .582.013.908.038.326.025.656.062.99.108.334.047.664.1.99.159.326.06.628.123.908.19v2.031a15.394 15.394 0 0 0-1.955-.425 12.853 12.853 0 0 0-1.892-.146c-1.295 0-2.247.216-2.856.647s-.914 1.011-.914 1.739c0 .448.125.833.375 1.155.25.322.578.609.984.863s.87.485 1.39.692c.521.208 1.052.421 1.593.641.542.22 1.073.461 1.593.724.521.263.984.573 1.39.933.406.359.734.781.983 1.264s.376 1.056.376 1.716zM151.279 49.787h-1.98l-.076-2.057c-.381.44-.743.807-1.085 1.099s-.684.526-1.022.704-.679.303-1.022.374a5.274 5.274 0 0 1-1.085.108c-1.312 0-2.302-.385-2.97-1.155-.669-.77-1.003-1.934-1.003-3.491v-8.327h2.208v8.149c0 1.955.736 2.933 2.209 2.933.271 0 .535-.04.793-.12.258-.081.529-.221.813-.419.283-.199.588-.468.914-.807a17.15 17.15 0 0 0 1.098-1.282v-8.454h2.208v12.745zM164.277 46.309c0 .449-.076.851-.229 1.206s-.359.671-.622.946a3.85 3.85 0 0 1-.914.704c-.347.194-.717.355-1.11.482s-.798.22-1.213.279c-.414.06-.82.089-1.218.089-.863 0-1.657-.038-2.381-.114s-1.433-.199-2.126-.368v-2.031c.744.212 1.485.373 2.222.482.736.11 1.468.165 2.196.165 1.058 0 1.84-.144 2.348-.432.508-.287.762-.698.762-1.231 0-.229-.04-.434-.12-.615-.081-.183-.227-.355-.438-.521-.211-.165-.539-.337-.983-.515s-1.052-.381-1.821-.609c-.576-.169-1.107-.361-1.594-.577s-.907-.472-1.263-.769a3.298 3.298 0 0 1-.838-1.041c-.203-.397-.305-.867-.305-1.409 0-.355.082-.745.247-1.168.165-.423.446-.816.845-1.181.397-.364.935-.666 1.612-.907s1.523-.362 2.539-.362a18.26 18.26 0 0 1 3.566.369v1.967a18.379 18.379 0 0 0-1.974-.375 12.951 12.951 0 0 0-1.618-.121c-.551 0-1.014.042-1.391.127-.377.085-.682.201-.914.349a1.37 1.37 0 0 0-.501.521c-.102.199-.152.413-.152.641s.044.436.133.622c.089.187.254.366.495.54.241.174.578.347 1.01.521.432.173.994.362 1.688.565.754.22 1.389.45 1.904.691.517.241.936.51 1.257.807.322.296.553.63.692 1.002.14.374.209.797.209 1.271zM177.605 49.609c-.499.127-1.016.218-1.549.272-.533.056-1.074.083-1.625.083-1.599 0-2.792-.361-3.579-1.085s-1.181-1.835-1.181-3.333v-6.652h-3.567v-1.853h3.567v-3.504l2.209-.571v4.075h5.725v1.853h-5.725v6.474c0 .914.243 1.598.729 2.051.486.452 1.204.679 2.151.679.406 0 .851-.031 1.333-.095s.986-.163 1.511-.299v1.905zM188.672 49.787l-.051-1.714c-.693.686-1.398 1.181-2.113 1.485s-1.466.457-2.253.457c-.729 0-1.351-.093-1.866-.279-.517-.187-.941-.442-1.276-.768a2.987 2.987 0 0 1-.736-1.149 4.26 4.26 0 0 1-.234-1.435c0-1.277.476-2.278 1.428-3.002s2.359-1.086 4.222-1.086h2.64V41.18c0-.753-.241-1.356-.724-1.809-.482-.453-1.219-.679-2.208-.679a9.49 9.49 0 0 0-2.127.241c-.698.161-1.42.39-2.164.686v-1.993a14.2 14.2 0 0 1 3.212-.742c.414-.046.833-.07 1.257-.07.77 0 1.464.084 2.081.254.618.169 1.141.427 1.568.774.427.347.755.783.983 1.307.229.525.343 1.143.343 1.854v8.785h-1.982zm-.241-5.801h-2.805c-.551 0-1.024.055-1.422.164-.398.11-.724.268-.978.471a1.88 1.88 0 0 0-.565.729 2.4 2.4 0 0 0-.184.958c0 .246.038.48.114.705.076.224.198.423.368.597.169.173.389.311.66.412.271.102.601.152.99.152.508 0 1.089-.154 1.745-.463.655-.31 1.348-.798 2.075-1.467v-2.258zM197.977 38.87h-3.771v-1.828h6.004v10.904h3.796v1.841h-10.219v-1.841h4.189V38.87zm.774-7.173c.245 0 .474.044.686.133.211.089.396.214.552.375.156.161.279.345.368.552.089.208.133.434.133.679 0 .237-.044.461-.133.673s-.212.398-.368.559-.341.286-.552.375c-.212.089-.44.133-.686.133-.246 0-.475-.044-.686-.133-.212-.089-.396-.214-.553-.375a1.776 1.776 0 0 1-.501-1.232c0-.245.044-.472.133-.679a1.82 1.82 0 0 1 .368-.552c.156-.161.341-.286.553-.375a1.77 1.77 0 0 1 .686-.133zM206.786 37.042h1.968l.089 2.056c.372-.44.731-.806 1.079-1.098.347-.292.688-.527 1.021-.705s.675-.303 1.022-.375a5.29 5.29 0 0 1 1.078-.108c1.313 0 2.305.387 2.978 1.162.673.774 1.009 1.94 1.009 3.497v8.315h-2.209V41.65c0-.999-.186-1.737-.559-2.215-.372-.478-.927-.717-1.663-.717-.271 0-.535.041-.793.121-.258.081-.526.22-.806.419a6.726 6.726 0 0 0-.908.806c-.326.339-.691.762-1.098 1.27v8.455h-2.209V37.042zM228.123 49.787l-.051-1.714c-.693.686-1.398 1.181-2.113 1.485s-1.466.457-2.253.457c-.729 0-1.351-.093-1.866-.279-.517-.187-.941-.442-1.276-.768a2.987 2.987 0 0 1-.736-1.149 4.26 4.26 0 0 1-.234-1.435c0-1.277.476-2.278 1.428-3.002s2.359-1.086 4.222-1.086h2.64V41.18c0-.753-.241-1.356-.724-1.809-.482-.453-1.219-.679-2.208-.679a9.49 9.49 0 0 0-2.127.241c-.698.161-1.42.39-2.164.686v-1.993a14.2 14.2 0 0 1 3.212-.742c.414-.046.833-.07 1.257-.07.77 0 1.464.084 2.081.254.618.169 1.141.427 1.568.774.427.347.755.783.983 1.307.229.525.343 1.143.343 1.854v8.785h-1.982zm-.242-5.801h-2.805c-.551 0-1.024.055-1.422.164-.398.11-.724.268-.978.471a1.88 1.88 0 0 0-.565.729 2.4 2.4 0 0 0-.184.958c0 .246.038.48.114.705.076.224.198.423.368.597.169.173.389.311.66.412.271.102.601.152.99.152.508 0 1.089-.154 1.745-.463.655-.31 1.348-.798 2.075-1.467v-2.258zM243.977 43.186c0 1.059-.146 2.004-.438 2.838-.292.833-.707 1.54-1.244 2.12a5.372 5.372 0 0 1-1.962 1.333c-.77.309-1.637.463-2.602.463-.754 0-1.523-.072-2.311-.216s-1.566-.372-2.336-.686V31.85h2.209v4.938l-.102 2.361c.635-.854 1.313-1.458 2.037-1.809s1.5-.527 2.329-.527c.729 0 1.367.152 1.917.457a3.973 3.973 0 0 1 1.384 1.288c.372.555.651 1.223.838 2.006.188.784.281 1.657.281 2.622zm-2.26.101c0-.668-.049-1.281-.146-1.84-.098-.559-.252-1.037-.464-1.435a2.545 2.545 0 0 0-.813-.933c-.33-.224-.724-.336-1.181-.336-.278 0-.563.044-.85.133a3.466 3.466 0 0 0-.896.444c-.309.208-.635.482-.978.825s-.709.768-1.098 1.276v6.182c.432.17.871.303 1.32.4.448.097.876.146 1.282.146.508 0 .992-.08 1.453-.241.461-.16.867-.43 1.219-.806.351-.377.63-.876.838-1.498.211-.622.314-1.394.314-2.317zM250.578 38.87h-3.771v-1.828h6.004v10.904h3.796v1.841h-10.219v-1.841h4.189V38.87zm.774-7.173c.245 0 .474.044.686.133.211.089.396.214.552.375.156.161.279.345.368.552.089.208.133.434.133.679 0 .237-.044.461-.133.673s-.212.398-.368.559-.341.286-.552.375c-.212.089-.44.133-.686.133-.246 0-.475-.044-.686-.133-.212-.089-.396-.214-.553-.375a1.776 1.776 0 0 1-.501-1.232c0-.245.044-.472.133-.679a1.82 1.82 0 0 1 .368-.552c.156-.161.341-.286.553-.375.211-.088.44-.133.686-.133zM263.727 33.665h-3.771V31.85h6.004v16.097h3.796v1.841h-10.219v-1.841h4.189V33.665zM276.877 38.87h-3.771v-1.828h6.004v10.904h3.796v1.841h-10.219v-1.841h4.189V38.87zm.775-7.173c.245 0 .474.044.686.133.211.089.396.214.552.375.156.161.279.345.368.552.089.208.133.434.133.679 0 .237-.044.461-.133.673s-.212.398-.368.559-.341.286-.552.375c-.212.089-.44.133-.686.133-.246 0-.475-.044-.686-.133-.212-.089-.396-.214-.553-.375a1.776 1.776 0 0 1-.501-1.232c0-.245.044-.472.133-.679a1.82 1.82 0 0 1 .368-.552c.156-.161.341-.286.553-.375.211-.088.44-.133.686-.133zM295.955 49.609c-.499.127-1.016.218-1.549.272-.533.056-1.074.083-1.625.083-1.599 0-2.792-.361-3.579-1.085s-1.181-1.835-1.181-3.333v-6.652h-3.567v-1.853h3.567v-3.504l2.209-.571v4.075h5.725v1.853h-5.725v6.474c0 .914.243 1.598.729 2.051.486.452 1.204.679 2.151.679.406 0 .851-.031 1.333-.095s.986-.163 1.511-.299v1.905zM310.171 37.042l-4.342 11.399c-.448 1.159-.911 2.158-1.39 2.996s-1.001 1.525-1.567 2.063a5.53 5.53 0 0 1-1.866 1.188c-.678.254-1.435.381-2.272.381a13.267 13.267 0 0 1-1.181-.051v-2.006c.186.025.389.049.609.069.22.021.452.032.698.032.406 0 .785-.06 1.136-.178.352-.119.684-.312.997-.578.313-.267.613-.611.901-1.034.287-.424.566-.936.838-1.536l-5.091-12.745h2.514l3.225 8.429.647 1.98.735-2.031 2.983-8.378h2.426z"/></g><g><linearGradient id="a" gradientUnits="userSpaceOnUse" x1="8.081" y1="40.585" x2="53.155" y2="40.585"><stop offset="0" stop-color="#be232f"/><stop offset="1" stop-color="#f04c3e"/></linearGradient><path opacity=".988" fill="url(#a)" d="M52.823 8.048c-.107-.404-.216-.798-.323-1.187-.106-.384-.214-.758-.319-1.128-.104-.36-.207-.717-.311-1.062-1.178.134-2.34.296-3.494.49-1.15.198-2.291.422-3.42.676a59.435 59.435 0 0 0-3.355.855 59.888 59.888 0 0 0-3.289 1.035 58.032 58.032 0 0 0-7.365 3.13 51.433 51.433 0 0 0-6.892 4.212 44.754 44.754 0 0 0-6.222 5.445 38.663 38.663 0 0 0-5.217 6.91 33.975 33.975 0 0 0-2.975 6.514 30.76 30.76 0 0 0-1.456 7.063 29.982 29.982 0 0 0 .317 7.506 31.527 31.527 0 0 0 2.377 7.737 35.28 35.28 0 0 0 3.205 5.629 39.747 39.747 0 0 0 4.547 5.402 44.988 44.988 0 0 0 5.941 4.959c2.238 1.57 4.686 3 7.326 4.262l2.998-5.379 4.978-8.928a40.391 40.391 0 0 1-5.43-2.734 35.012 35.012 0 0 1-4.555-3.273 30.144 30.144 0 0 1-3.64-3.65 26.582 26.582 0 0 1-3.004-4.394c-.088-.166-.175-.335-.262-.498l-.249-.5c-.077-.168-.157-.334-.234-.502a22.44 22.44 0 0 1-1.571-4.812 21.124 21.124 0 0 1-.421-4.782c.042-1.555.256-3.105.644-4.649a23.172 23.172 0 0 1 1.615-4.436 26.693 26.693 0 0 1 3.527-5.443 31.603 31.603 0 0 1 4.534-4.418 37.423 37.423 0 0 1 5.255-3.497 42.908 42.908 0 0 1 5.78-2.643 46.762 46.762 0 0 1 5.507-1.663 49.204 49.204 0 0 1 5.783-1.009 58.188 58.188 0 0 0-.33-1.238z"/><linearGradient id="b" gradientUnits="userSpaceOnUse" x1="59.665" y1="15.79" x2="106.284" y2="15.79"><stop offset="0" stop-color="#2c753a"/><stop offset="1" stop-color="#519141"/></linearGradient><path fill="url(#b)" d="M90.208 24.242a27.104 27.104 0 0 0-1.863-2.233 30.446 30.446 0 0 0-2.121-2.061 31.7 31.7 0 0 0-2.369-1.884l-1.632-1.187 9.536-4.548.565.37a49.002 49.002 0 0 1 3.494 2.509 43.484 43.484 0 0 1 3.231 2.8 41.51 41.51 0 0 1 2.935 3.09 40.091 40.091 0 0 1 2.604 3.395c.126.186.224.383.349.571l.014-.001c.226-.018.448-.036.668-.056.222-.016.441-.035.665-.051-2.134-3.254-4.882-6.142-8.021-8.622-2.958-2.337-6.302-4.335-9.868-5.955a55.752 55.752 0 0 0-10.889-3.627 60.051 60.051 0 0 0-11.622-1.434 49.455 49.455 0 0 0-3.15 0c-.516.013-1.032.032-1.544.059-.512.026-1.02.057-1.525.097l1.669 7.744c.334-.027.672-.044 1.01-.065.338-.016.679-.031 1.021-.039.343-.007.689-.01 1.033-.007a35.468 35.468 0 0 1 8.639 1.098 31.629 31.629 0 0 1 6.832 2.59c2.147 1.124 4.095 2.482 5.734 4.036 1.701 1.615 3.084 3.451 4.03 5.458.266-.02.532-.04.796-.062.266-.023.531-.042.8-.063l.235-.02a25.199 25.199 0 0 0-1.256-1.902z"/><linearGradient id="c" gradientUnits="userSpaceOnUse" x1="84.56" y1="33.3" x2="109.415" y2="33.3"><stop offset="0" stop-color="#be232f"/><stop offset="1" stop-color="#f04c3e"/></linearGradient><path opacity=".988" fill="url(#c)" d="M108.887 37.742a31.96 31.96 0 0 0-2.034-6.655 34.752 34.752 0 0 0-3.256-5.917 37.495 37.495 0 0 0-2.526-3.291 38.671 38.671 0 0 0-2.849-3.004 44.234 44.234 0 0 0-3.146-2.724 48.74 48.74 0 0 0-3.41-2.447L84.56 17.09a31.897 31.897 0 0 1 4.665 4.104c.698.754 1.348 1.53 1.944 2.329a26.136 26.136 0 0 1 1.656 2.511 23.862 23.862 0 0 1 2.054 4.6c.527 1.636.863 3.323.997 5.034a21.509 21.509 0 0 1-.256 5.377 22.801 22.801 0 0 1-1.739 5.566l14.017 6.286a30.955 30.955 0 0 0 1.47-7.832 30.475 30.475 0 0 0-.481-7.323z"/><linearGradient id="d" gradientUnits="userSpaceOnUse" x1="76.89" y1="42.058" x2="92.111" y2="42.058"><stop offset="0" stop-color="#124370"/><stop offset="1" stop-color="#0064a5"/></linearGradient><path fill="url(#d)" d="M91.504 31.667l-7.596-.194c.257 1.335.301 2.678.147 4.008a13.846 13.846 0 0 1-1.103 4.006 16.398 16.398 0 0 1-2.394 3.826 20.065 20.065 0 0 1-3.67 3.408l6.476 5.921c1.875-1.474 3.464-3.106 4.757-4.853 1.255-1.696 2.221-3.484 2.888-5.332a18.18 18.18 0 0 0 1.086-5.459 17.862 17.862 0 0 0-.591-5.331"/><linearGradient id="e" gradientUnits="userSpaceOnUse" x1="31.078" y1="24.399" x2="63.811" y2="24.399"><stop offset="0" stop-color="#be232f"/><stop offset="1" stop-color="#f04c3e"/></linearGradient><path opacity=".988" fill="url(#e)" d="M55.266 15.389a32.537 32.537 0 0 0-7.752 1.07c-2.461.654-4.776 1.594-6.844 2.763-2.117 1.196-4 2.652-5.521 4.312-1.577 1.714-2.785 3.669-3.47 5.803-.107.336-.2.674-.277 1.013a12.377 12.377 0 0 0-.302 2.04c-.021.342-.025.681-.021 1.023l5.428-.728a9.174 9.174 0 0 1-.052-.832 9.529 9.529 0 0 1 .131-1.681 9.62 9.62 0 0 1 .188-.844c.444-1.657 1.31-3.185 2.481-4.541 1.142-1.316 2.582-2.477 4.219-3.436a22.127 22.127 0 0 1 5.376-2.231 25.097 25.097 0 0 1 6.147-.855 24.443 24.443 0 0 1 3.554.21c.573.076 1.138.176 1.688.291.549.121 1.089.255 1.612.407l1.959-2.739a26.255 26.255 0 0 0-2.026-.48 29.482 29.482 0 0 0-4.277-.524 30.21 30.21 0 0 0-2.241-.041"/><path fill="#231F20" d="M26.534 45.08l-.087.033c.026-.011.058-.021.087-.033z"/><linearGradient id="f" gradientUnits="userSpaceOnUse" x1="21.702" y1="29.205" x2="43.008" y2="29.205"><stop offset="0" stop-color="#124370"/><stop offset="1" stop-color="#0064a5"/></linearGradient><path fill="url(#f)" d="M36.665 15.651a36.568 36.568 0 0 0-5.086 3.385 30.437 30.437 0 0 0-4.363 4.25 25.486 25.486 0 0 0-3.367 5.193 22.465 22.465 0 0 0-1.532 4.207 20.202 20.202 0 0 0-.607 4.391 20 20 0 0 0 .398 4.51c.263 1.302.695 2.599 1.22 3.871l2.828-1.028a18.99 18.99 0 0 1-1.633-3.664 17.468 17.468 0 0 1-.818-4.399 17.297 17.297 0 0 1 .315-4.347 18.877 18.877 0 0 1 1.364-4.197 22.027 22.027 0 0 1 3.124-4.947 26.982 26.982 0 0 1 4.163-4.019 32.514 32.514 0 0 1 4.897-3.157 37.519 37.519 0 0 1 5.44-2.337l-.289-.357-.045-.054c-.128.046-.264.084-.394.133-1.98.735-3.87 1.6-5.615 2.566z"/><linearGradient id="g" gradientUnits="userSpaceOnUse" x1="0" y1="29.568" x2="37.468" y2="29.568"><stop offset="0" stop-color="#124370"/><stop offset="1" stop-color="#0064a5"/></linearGradient><path fill="url(#g)" d="M7.321 48.709a31.097 31.097 0 0 1-.33-7.808 32.001 32.001 0 0 1 1.512-7.338 35.445 35.445 0 0 1 3.081-6.749 39.813 39.813 0 0 1 5.376-7.12 45.512 45.512 0 0 1 6.389-5.593 52.518 52.518 0 0 1 7.049-4.309 58.356 58.356 0 0 1 7.071-3.024c-.061-.073-.127-.143-.187-.212a36.503 36.503 0 0 0-.5-.557c-.16-.181-.323-.358-.48-.534a66.085 66.085 0 0 0-8.37 3.263 60.626 60.626 0 0 0-7.951 4.494 52.81 52.81 0 0 0-7.337 5.922c-2.367 2.304-4.52 4.858-6.368 7.668a39.766 39.766 0 0 0-3.901 7.536 35.335 35.335 0 0 0-2.107 8.313 33.801 33.801 0 0 0 .067 8.963c.098.684.218 1.363.358 2.046l7.134-2.59a30.044 30.044 0 0 1-.506-2.371z"/><linearGradient id="h" gradientUnits="userSpaceOnUse" x1="24.794" y1="59.91" x2="86.043" y2="59.91"><stop offset="0" stop-color="#2c753a"/><stop offset="1" stop-color="#519141"/></linearGradient><path fill="url(#h)" d="M72.05 51.021a26.007 26.007 0 0 1-3.967 2.168 29.115 29.115 0 0 1-4.532 1.547 30.405 30.405 0 0 1-4.935.824 30.888 30.888 0 0 1-5.153.006c-.185-.014-.367-.027-.552-.044-.185-.022-.368-.041-.551-.065-.183-.02-.367-.045-.55-.066-.182-.025-.367-.05-.55-.08-2.347-.365-4.536-.975-6.53-1.799a23.752 23.752 0 0 1-5.264-2.969 19.42 19.42 0 0 1-3.821-3.783 16.227 16.227 0 0 1-1.669-2.734l-9.183 4.379a25.685 25.685 0 0 0 2.372 3.361c1.034 1.229 2.606 2.635 4.044 3.729 3.845 2.928 7.652 4.498 9.509 5.271l1.244.512-5.217 10.648c.522.238.298.157.846.375.928.373 1.882.717 2.853 1.033a49.36 49.36 0 0 0 7.216 1.752 47.65 47.65 0 0 0 2.123.31c.355.046.708.083 1.063.122 3.354.349 6.704.363 9.985.072a51.439 51.439 0 0 0 9.514-1.754 47.24 47.24 0 0 0 8.533-3.346 41.55 41.55 0 0 0 7.166-4.6L72.05 51.021z"/></g><radialGradient id="i" cx="-42.643" cy="-79.238" r="27.775" gradientTransform="matrix(1.97 0 0 .089 138.95 92.376)" gradientUnits="userSpaceOnUse"><stop offset="0" stop-color="#231f20" stop-opacity=".95"/><stop offset="1" stop-color="#231f20" stop-opacity="0"/></radialGradient><ellipse opacity=".8" fill="url(#i)" cx="54.941" cy="85.323" rx="54.713" ry="2.473"/></svg>